# xmcd CD database file
#
# Track frame offsets:
#	150
#	22161
#	49782
#
# Disc length: 1152 seconds
#
# Revision: 0
# Processed by: cddbd v1.5.1PL0 Copyright (c) Steve Scherf et al.
# Submitted via: CDex 1.40Beta9
#
DISCID=21047e03
DTITLE=雅-Miyavi- - Freedom Fighters -アイスクリーム持った裸足の女神と、機関銃持った裸の王様-
DYEAR=2005
DGENRE=J-Pop
TTITLE0=Freedom Fighters -アイスクリーム持った裸足の女神と、機関銃持った裸の王様-
TTITLE1=勝利のV-ROCK!!
TTITLE2=Freedom Fighters -アイスクリーム持った裸足の女神と、機関銃持った裸の王様-(ins.)
EXTD=YEAR: 2005/05/04
EXTT0=
EXTT1=
EXTT2=
PLAYORDER=
